<?xml version="1.0" encoding="utf-8"?>
<!-- Generator: Adobe Illustrator 16.0.0, SVG Export Plug-In . SVG Version: 6.00 Build 0)  -->
<!DOCTYPE svg PUBLIC "-//W3C//DTD SVG 1.1//EN" "http://www.w3.org/Graphics/SVG/1.1/DTD/svg11.dtd">
<svg version="1.1"
	 id="svg3108" xmlns:dc="http://purl.org/dc/elements/1.1/" xmlns:cc="http://creativecommons.org/ns#" xmlns:rdf="http://www.w3.org/1999/02/22-rdf-syntax-ns#" xmlns:svg="http://www.w3.org/2000/svg"
	 xmlns="http://www.w3.org/2000/svg" xmlns:xlink="http://www.w3.org/1999/xlink" x="0px" y="0px" width="1024px" height="1024px"
	 viewBox="0 0 1024 1024" enable-background="new 0 0 1024 1024" xml:space="preserve">
<g id="g3118">
	<path id="path3188" fill="#FEF1DC" d="M0,512V0h512h512v512v512H512H0V512z"/>
	<path id="path3186" fill="#E5F3E1" d="M0,512V0h512h512v512v512H512H0V512z M639,724.5V703h11h11v-10.5V682h-11h-11v10.5V703h-21
		h-21v11v11h10.5H618v10.5V746h10.5H639V724.5z M554,479.5V469h-21.5H511v10.5V490h21.5H554V479.5z M533,372.5V362h10.5H554v10.5
		V383h10.5H575v-10.5V362h11h11v-10.5V341h10.5H618v-21.5V298h-10.5H597v21.5V341h-43h-43v-11v-11h-10.5H490v11v11h10.5H511v10.5
		V362h-21h-21v-10.5V341h-21.5H426v10.5V362h10.5H447v10.5V383h43h43V372.5z M341,351.5V341h-11h-11v-32v-32h-21h-21v10.5V298h-11
		h-11v32v32h43h43V351.5z M661,319.5V298h-11h-11v21.5V341h11h11V319.5z M511,287.5V277h43h43v-21.5V234h-11h-11v-10.5V213h-64h-64
		v10.5V234h-10.5H426v21.5V277h32h32v10.5V298h10.5H511V287.5z"/>
	<path id="path3184" fill="#EDDEC7" d="M0,512V0h512h512v512v512H512H0V512z M639,724.5V703h11h11v-10.5V682h-11h-11v10.5V703h-21
		h-21v11v11h10.5H618v10.5V746h10.5H639V724.5z M554,479.5V469h-21.5H511v10.5V490h21.5H554V479.5z M533,372.5V362h10.5H554v10.5
		V383h10.5H575v-10.5V362h11h11v-10.5V341h10.5H618v-21.5V298h-32h-32v10.5V319h-10.5H533v-10.5V298h-11h-11v-10.5V277h43h43v-21.5
		V234h-11h-11v-10.5V213h-64h-64v10.5V234h-10.5H426v21.5V277h32h32v10.5V298h-10.5H469v10.5V319h-11h-11v-10.5V298h-10.5H426v32v32
		h10.5H447v10.5V383h43h43V372.5z M469,340.5V319h10.5H490v-10.5V298h10.5H511v10.5V319h-10.5H490v11v11h10.5H511v10.5V362h-21h-21
		V340.5z M341,351.5V341h-11h-11v-32v-32h-21h-21v10.5V298h-11h-11v32v32h43h43V351.5z M661,319.5V298h-11h-11v21.5V341h11h11V319.5
		z"/>
	<path id="path3182" fill="#E4D8C5" d="M0,512V0h512h512v512v512H512H0V512z M639,724.5V703h11h11v-10.5V682h-11h-11v10.5V703h-21
		h-21v11v11h10.5H618v10.5V746h10.5H639V724.5z M554,479.5V469h-21.5H511v10.5V490h21.5H554V479.5z M554,404.5V383h10.5H575v11v11
		h11h11v-11v-11h10.5H618v-42.5V298h-32h-32v10.5V319h-10.5H533v-10.5V298h-11h-11v-10.5V277h43h43v-21.5V234h-11h-11v-10.5V213h-64
		h-64v10.5V234h-10.5H426v21.5V277h32h32v10.5V298h-10.5H469v10.5V319h-11h-11v-10.5V298h-10.5H426v42.5V383h10.5H447v21.5V426h53.5
		H554V404.5z M469,394v-11h32h32v-10.5V362h10.5H554v10.5V383h-10.5H533v11v11h-32h-32V394z M469,340.5V319h10.5H490v-10.5V298h10.5
		H511v10.5V319h-10.5H490v11v11h10.5H511v10.5V362h-21h-21V340.5z M341,351.5V341h-11h-11v-32v-32h-21h-21v10.5V298h-11h-11v32v32
		h43h43V351.5z M661,319.5V298h-11h-11v21.5V341h11h11V319.5z"/>
	<path id="path3180" fill="#EDFE90" d="M0,512V0h512h512v512v512H512H0V512z M639,724.5V703h11h11v-21v-21h-11h-11v21v21h-21h-21v11
		v11h10.5H618v10.5V746h10.5H639V724.5z M554,479.5V469h-21.5H511v10.5V490h21.5H554V479.5z M554,404.5V383h10.5H575v11v11h11h11
		v-11v-11h10.5H618v-42.5V298h-32h-32v10.5V319h-10.5H533v-10.5V298h-11h-11v-10.5V277h43h43v-21.5V234h-11h-11v-10.5V213h-64h-64
		v10.5V234h-10.5H426v21.5V277h32h32v10.5V298h-10.5H469v10.5V319h-11h-11v-10.5V298h-10.5H426v42.5V383h10.5H447v21.5V426h53.5H554
		V404.5z M469,394v-11h32h32v-10.5V362h10.5H554v10.5V383h-10.5H533v11v11h-32h-32V394z M469,340.5V319h10.5H490v-10.5V298h10.5H511
		v10.5V319h-10.5H490v11v11h10.5H511v10.5V362h-21h-21V340.5z M298,383.5V362h21.5H341v-10.5V341h-11h-11v-32v-32h-21h-21v10.5V298
		h-11h-11v32v32h11h11v21.5V405h10.5H298V383.5z M661,319.5V298h-11h-11v21.5V341h11h11V319.5z"/>
	<path id="path3178" fill="#DDCDB4" d="M0,512V0h512h512v512v512H512H0V512z M639,724.5V703h11h11v-21v-21h-11h-11v21v21h-21h-21v11
		v11h10.5H618v10.5V746h10.5H639V724.5z M447,671.5V661h-10.5H426v10.5V682h10.5H447V671.5z M490,671.5V661h-10.5H469v10.5V682h10.5
		H490V671.5z M533,671.5V661h-11h-11v10.5V682h11h11V671.5z M575,671.5V661h-10.5H554v10.5V682h10.5H575V671.5z M618,671.5V661
		h-10.5H597v10.5V682h10.5H618V671.5z M447,628.5V618h-10.5H426v10.5V639h10.5H447V628.5z M490,628.5V618h-10.5H469v10.5V639h10.5
		H490V628.5z M533,628.5V618h-11h-11v10.5V639h11h11V628.5z M575,628.5V618h-10.5H554v10.5V639h10.5H575V628.5z M618,628.5V618
		h-10.5H597v10.5V639h10.5H618V628.5z M661,607.5V597h-11h-11v10.5V618h11h11V607.5z M469,586v-11h-11h-11v11v11h11h11V586z
		 M511,586v-11h-10.5H490v11v11h10.5H511V586z M554,586v-11h-10.5H533v11v11h10.5H554V586z M597,586v-11h-11h-11v11v11h11h11V586z
		 M661,564.5V554h-11h-11v10.5V575h11h11V564.5z M469,543.5V533h-11h-11v10.5V554h11h11V543.5z M511,543.5V533h-10.5H490v10.5V554
		h10.5H511V543.5z M554,543.5V533h-10.5H533v10.5V554h10.5H554V543.5z M597,543.5V533h-11h-11v10.5V554h11h11V543.5z M661,522v-11
		h-11h-11v11v11h11h11V522z M341,500.5V490h-11h-11v10.5V511h11h11V500.5z M383,500.5V490h-10.5H362v10.5V511h10.5H383V500.5z
		 M490,500.5V490h-10.5H469v10.5V511h10.5H490V500.5z M533,500.5V490h10.5H554v10.5V511h10.5H575v-10.5V490h-10.5H554v-10.5V469
		h-21.5H511v21v21h11h11V500.5z M298,479.5V469h-10.5H277v10.5V490h10.5H298V479.5z M298,436.5V426h-10.5H277v10.5V447h10.5H298
		V436.5z M554,404.5V383h10.5H575v11v11h11h11v-11v-11h10.5H618v-42.5V298h-32h-32v10.5V319h-10.5H533v-10.5V298h-11h-11v-10.5V277
		h43h43v-21.5V234h-11h-11v-10.5V213h-64h-64v10.5V234h-10.5H426v21.5V277h32h32v10.5V298h-10.5H469v10.5V319h-11h-11v-10.5V298
		h-10.5H426v42.5V383h10.5H447v21.5V426h53.5H554V404.5z M469,394v-11h32h32v-10.5V362h10.5H554v10.5V383h-10.5H533v11v11h-32h-32
		V394z M469,340.5V319h10.5H490v-10.5V298h10.5H511v10.5V319h-10.5H490v11v11h10.5H511v10.5V362h-21h-21V340.5z M298,383.5V362h21.5
		H341v-10.5V341h-11h-11v-32v-32h-21h-21v10.5V298h-11h-11v32v32h11h11v21.5V405h10.5H298V383.5z M661,319.5V298h-11h-11v21.5V341
		h11h11V319.5z"/>
	<path id="path3176" fill="#EDC3AC" d="M0,512V0h512h512v512v512H512H0V512z M639,724.5V703h11h11v-21v-21h-11h-11v21v21h-21h-21v11
		v11h10.5H618v10.5V746h10.5H639V724.5z M447,671.5V661h-10.5H426v10.5V682h10.5H447V671.5z M490,671.5V661h-10.5H469v10.5V682h10.5
		H490V671.5z M533,671.5V661h-11h-11v10.5V682h11h11V671.5z M575,671.5V661h-10.5H554v10.5V682h10.5H575V671.5z M618,671.5V661
		h-10.5H597v10.5V682h10.5H618V671.5z M447,628.5V618h-10.5H426v10.5V639h10.5H447V628.5z M490,628.5V618h-10.5H469v10.5V639h10.5
		H490V628.5z M533,628.5V618h-11h-11v10.5V639h11h11V628.5z M575,628.5V618h-10.5H554v10.5V639h10.5H575V628.5z M618,628.5V618
		h-10.5H597v10.5V639h10.5H618V628.5z M661,607.5V597h-11h-11v10.5V618h11h11V607.5z M469,586v-11h-11h-11v11v11h11h11V586z
		 M511,586v-11h-10.5H490v11v11h10.5H511V586z M554,586v-11h-10.5H533v11v11h10.5H554V586z M597,586v-11h-11h-11v11v11h11h11V586z
		 M661,564.5V554h-11h-11v10.5V575h11h11V564.5z M469,543.5V533h-11h-11v10.5V554h11h11V543.5z M511,543.5V533h-10.5H490v10.5V554
		h10.5H511V543.5z M554,543.5V533h-10.5H533v10.5V554h10.5H554V543.5z M597,543.5V533h-11h-11v10.5V554h11h11V543.5z M661,522v-11
		h-11h-11v11v11h11h11V522z M341,500.5V490h-11h-11v10.5V511h11h11V500.5z M383,500.5V490h-10.5H362v10.5V511h10.5H383V500.5z
		 M490,500.5V490h-10.5H469v10.5V511h10.5H490V500.5z M533,500.5V490h10.5H554v10.5V511h10.5H575v-10.5V490h-10.5H554v-10.5V469
		h-21.5H511v21v21h11h11V500.5z M298,479.5V469h-10.5H277v10.5V490h10.5H298V479.5z M298,436.5V426h-10.5H277v10.5V447h10.5H298
		V436.5z M597,436.5V426h10.5H618v-10.5V405h10.5H639v-32v-32h11h11v-21.5V298h-11h-11v21.5V341h-10.5H618v-21.5V298h-32h-32v10.5
		V319h-10.5H533v-10.5V298h-11h-11v-10.5V277h43h43v-21.5V234h-11h-11v-10.5V213h-64h-64v10.5V234h-10.5H426v21.5V277h32h32v10.5
		V298h-10.5H469v10.5V319h-11h-11v-10.5V298h-10.5H426v64v64h10.5H447v10.5V447h75h75V436.5z M469,394v-11h32h32v-10.5V362h10.5H554
		v10.5V383h-10.5H533v11v11h-32h-32V394z M490,308.5V298h10.5H511v10.5V319h-10.5H490V308.5z M298,383.5V362h21.5H341v-10.5V341h-11
		h-11v-32v-32h-21h-21v10.5V298h-11h-11v32v32h11h11v21.5V405h10.5H298V383.5z"/>
	<path id="path3174" fill="#C9D682" d="M0,512V0h512h512v512v512H512H0V512z M639,724.5V703h11h11v-21v-21h-11h-11v21v21h-21h-21v11
		v11h10.5H618v10.5V746h10.5H639V724.5z M447,671.5V661h-10.5H426v10.5V682h10.5H447V671.5z M490,671.5V661h-10.5H469v10.5V682h10.5
		H490V671.5z M533,671.5V661h-11h-11v10.5V682h11h11V671.5z M575,671.5V661h-10.5H554v10.5V682h10.5H575V671.5z M618,671.5V661
		h-10.5H597v10.5V682h10.5H618V671.5z M447,628.5V618h-10.5H426v10.5V639h10.5H447V628.5z M490,628.5V618h-10.5H469v10.5V639h10.5
		H490V628.5z M533,628.5V618h-11h-11v10.5V639h11h11V628.5z M575,628.5V618h-10.5H554v10.5V639h10.5H575V628.5z M618,628.5V618
		h-10.5H597v10.5V639h10.5H618V628.5z M661,607.5V597h-11h-11v10.5V618h11h11V607.5z M469,586v-11h-11h-11v11v11h11h11V586z
		 M511,586v-11h-10.5H490v11v11h10.5H511V586z M554,586v-11h-10.5H533v11v11h10.5H554V586z M597,586v-11h-11h-11v11v11h11h11V586z
		 M661,564.5V554h-11h-11v10.5V575h11h11V564.5z M469,543.5V533h-11h-11v10.5V554h11h11V543.5z M511,543.5V533h-10.5H490v10.5V554
		h10.5H511V543.5z M554,543.5V533h-10.5H533v10.5V554h10.5H554V543.5z M597,543.5V533h-11h-11v10.5V554h11h11V543.5z M661,522v-11
		h-11h-11v11v11h11h11V522z M341,500.5V490h-11h-11v10.5V511h11h11V500.5z M383,500.5V490h-10.5H362v10.5V511h10.5H383V500.5z
		 M490,500.5V490h-10.5H469v10.5V511h10.5H490V500.5z M533,500.5V490h10.5H554v10.5V511h10.5H575v-10.5V490h-10.5H554v-10.5V469
		h-21.5H511v21v21h11h11V500.5z M298,479.5V469h-10.5H277v10.5V490h10.5H298V479.5z M298,436.5V426h-10.5H277v10.5V447h10.5H298
		V436.5z M597,436.5V426h10.5H618v-10.5V405h10.5H639v-32v-32h11h11v-21.5V298h-11h-11v21.5V341h-10.5H618v-21.5V298h-32h-32v10.5
		V319h-10.5H533v-10.5V298h-11h-11v-10.5V277h43h43v-21.5V234h-11h-11v-10.5V213h-64h-64v10.5V234h-10.5H426v21.5V277h32h32v10.5
		V298h-10.5H469v10.5V319h-11h-11v-10.5V298h-10.5H426v64v64h10.5H447v10.5V447h75h75V436.5z M490,308.5V298h10.5H511v10.5V319
		h-10.5H490V308.5z M298,383.5V362h21.5H341v-10.5V341h-11h-11v-32v-32h-21h-21v10.5V298h-11h-11v32v32h11h11v21.5V405h10.5H298
		V383.5z"/>
	<path id="path3172" fill="#BFCA7F" d="M0,512V0h512h512v512v512H512H0V512z M639,724.5V703h11h11v-21v-21h-11h-11v21v21h-21h-21v11
		v11h10.5H618v10.5V746h10.5H639V724.5z M447,671.5V661h-10.5H426v10.5V682h10.5H447V671.5z M490,671.5V661h-10.5H469v10.5V682h10.5
		H490V671.5z M533,671.5V661h-11h-11v10.5V682h11h11V671.5z M575,671.5V661h-10.5H554v10.5V682h10.5H575V671.5z M618,671.5V661
		h-10.5H597v10.5V682h10.5H618V671.5z M447,628.5V618h-10.5H426v10.5V639h10.5H447V628.5z M490,628.5V618h-10.5H469v10.5V639h10.5
		H490V628.5z M533,628.5V618h-11h-11v10.5V639h11h11V628.5z M575,628.5V618h-10.5H554v10.5V639h10.5H575V628.5z M618,628.5V618
		h-10.5H597v10.5V639h10.5H618V628.5z M661,575v-64h-11h-11v64v64h11h11V575z M469,586v-11h-11h-11v11v11h11h11V586z M511,586v-11
		h-10.5H490v11v11h10.5H511V586z M554,586v-11h-10.5H533v11v11h10.5H554V586z M597,586v-11h-11h-11v11v11h11h11V586z M469,543.5V533
		h-11h-11v10.5V554h11h11V543.5z M511,543.5V533h-10.5H490v10.5V554h10.5H511V543.5z M554,543.5V533h-10.5H533v10.5V554h10.5H554
		V543.5z M597,543.5V533h-11h-11v10.5V554h11h11V543.5z M405,500.5V490h-53.5H298v-32v-32h-10.5H277v32v32h10.5H298v10.5V511h53.5
		H405V500.5z M490,500.5V490h-10.5H469v10.5V511h10.5H490V500.5z M533,500.5V490h10.5H554v10.5V511h10.5H575v-21v-21h-32h-32v21v21
		h11h11V500.5z M597,436.5V426h10.5H618v-10.5V405h10.5H639v-32v-32h11h11v-21.5V298h-11h-11v21.5V341h-10.5H618v-21.5V298h-32h-32
		v10.5V319h-10.5H533v-10.5V298h-11h-11v-10.5V277h43h43v-21.5V234h-11h-11v-10.5V213h-64h-64v10.5V234h-10.5H426v21.5V277h32h32
		v10.5V298h-10.5H469v10.5V319h-11h-11v-10.5V298h-10.5H426v64v64h10.5H447v10.5V447h75h75V436.5z M490,308.5V298h10.5H511v10.5V319
		h-10.5H490V308.5z M298,383.5V362h21.5H341v-10.5V341h-11h-11v-32v-32h-21h-21v10.5V298h-11h-11v32v32h11h11v21.5V405h10.5H298
		V383.5z"/>
	<path id="path3170" fill="#B7AD9D" d="M0,512V0h512h512v512v512H512H0V512z M426,863.5V853h-21.5H383v10.5V874h21.5H426V863.5z
		 M639,863.5V853h-21h-21v10.5V874h21h21V863.5z M639,724.5V703h11h11v-21v-21h-11h-11v21v21h-10.5H618v-64v-64h-10.5H597v-10.5V554
		h10.5H618v-10.5V533h10.5H639v53v53h11h11v-64v-64h-21.5H618v11v11h-10.5H597v-11v-11h-11h-11v-21v-21h-32h-32v21v21h-10.5H490
		v-10.5V490h-10.5H469v10.5V511h-11h-11v11v11h-10.5H426v10.5V554h10.5H447v10.5V575h-10.5H426v21.5V618h-10.5H405v10.5V639h10.5
		H426v11v11h-10.5H405v10.5V682h10.5H426v10.5V703h10.5H447v-10.5V682h11h11v10.5V703h10.5H490v-10.5V682h10.5H511v10.5V703h11h11
		v-10.5V682h10.5H554v10.5V703h10.5H575v-10.5V682h11h11v21.5V725h10.5H618v10.5V746h10.5H639V724.5z M447,650v-11h11h11v11v11h-11
		h-11V650z M490,650v-11h10.5H511v11v11h-10.5H490V650z M533,650v-11h10.5H554v11v11h-10.5H533V650z M575,650v-11h11h11v11v11h-11
		h-11V650z M447,607.5V597h11h11v10.5V618h-11h-11V607.5z M490,607.5V597h10.5H511v10.5V618h-10.5H490V607.5z M533,607.5V597h10.5
		H554v10.5V618h-10.5H533V607.5z M575,607.5V597h11h11v10.5V618h-11h-11V607.5z M469,564.5V554h10.5H490v10.5V575h-10.5H469V564.5z
		 M511,564.5V554h11h11v10.5V575h-11h-11V564.5z M554,564.5V554h10.5H575v10.5V575h-10.5H554V564.5z M469,522v-11h10.5H490v11v11
		h-10.5H469V522z M511,522v-11h11h11v-10.5V490h10.5H554v10.5V511h10.5H575v11v11h-10.5H554v-11v-11h-10.5H533v11v11h-11h-11V522z
		 M405,500.5V490h-53.5H298v-32v-32h-10.5H277v32v32h10.5H298v10.5V511h53.5H405V500.5z M597,436.5V426h10.5H618v-10.5V405h10.5H639
		v-32v-32h11h11v-21.5V298h-11h-11v21.5V341h-10.5H618v-21.5V298h-32h-32v10.5V319h-10.5H533v-10.5V298h-11h-11v-10.5V277h43h43
		v-21.5V234h-11h-11v-10.5V213h-64h-64v10.5V234h-10.5H426v21.5V277h32h32v10.5V298h-10.5H469v10.5V319h-11h-11v-10.5V298h-10.5H426
		v64v64h10.5H447v10.5V447h75h75V436.5z M490,308.5V298h10.5H511v10.5V319h-10.5H490V308.5z M298,383.5V362h21.5H341v-10.5V341h-11
		h-11v-32v-32h-21h-21v10.5V298h-11h-11v32v32h11h11v21.5V405h10.5H298V383.5z"/>
	<path id="path3168" fill="#BAC57C" d="M0,512V0h512h512v512v512H512H0V512z M426,863.5V853h-21.5H383v10.5V874h21.5H426V863.5z
		 M639,863.5V853h-21h-21v10.5V874h21h21V863.5z M639,724.5V703h11h11v-21v-21h-11h-11v21v21h-10.5H618v-64v-64h-10.5H597v-10.5V554
		h10.5H618v-10.5V533h10.5H639v53v53h11h11v-64v-64h-21.5H618v11v11h-10.5H597v-11v-11h-11h-11v-32v-32h11h11v-10.5V426h10.5H618
		v-10.5V405h10.5H639v-32v-32h11h11v-21.5V298h-11h-11v21.5V341h-10.5H618v-21.5V298h-32h-32v10.5V319h-10.5H533v-10.5V298h-11h-11
		v-10.5V277h43h43v-21.5V234h-11h-11v-10.5V213h-64h-64v10.5V234h-10.5H426v21.5V277h32h32v10.5V298h-10.5H469v10.5V319h-11h-11
		v-10.5V298h-10.5H426v64v64h10.5H447v10.5V447h32h32v32v32h-10.5H490v-10.5V490h-10.5H469v10.5V511h-11h-11v11v11h-10.5H426v10.5
		V554h10.5H447v10.5V575h-10.5H426v21.5V618h-10.5H405v10.5V639h10.5H426v11v11h-10.5H405v10.5V682h10.5H426v10.5V703h10.5H447
		v-10.5V682h11h11v10.5V703h10.5H490v-10.5V682h10.5H511v10.5V703h11h11v-10.5V682h10.5H554v10.5V703h10.5H575v-10.5V682h11h11v21.5
		V725h10.5H618v10.5V746h10.5H639V724.5z M447,650v-11h11h11v11v11h-11h-11V650z M490,650v-11h10.5H511v11v11h-10.5H490V650z
		 M533,650v-11h10.5H554v11v11h-10.5H533V650z M575,650v-11h11h11v11v11h-11h-11V650z M447,607.5V597h11h11v10.5V618h-11h-11V607.5z
		 M490,607.5V597h10.5H511v10.5V618h-10.5H490V607.5z M533,607.5V597h10.5H554v10.5V618h-10.5H533V607.5z M575,607.5V597h11h11v10.5
		V618h-11h-11V607.5z M469,564.5V554h10.5H490v10.5V575h-10.5H469V564.5z M511,564.5V554h11h11v10.5V575h-11h-11V564.5z M554,564.5
		V554h10.5H575v10.5V575h-10.5H554V564.5z M469,522v-11h10.5H490v11v11h-10.5H469V522z M511,522v-11h11h11v-10.5V490h10.5H554v10.5
		V511h10.5H575v11v11h-10.5H554v-11v-11h-10.5H533v11v11h-11h-11V522z M490,308.5V298h10.5H511v10.5V319h-10.5H490V308.5z
		 M405,500.5V490h-53.5H298v-32v-32h-10.5H277v32v32h10.5H298v10.5V511h53.5H405V500.5z M298,383.5V362h21.5H341v-10.5V341h-11h-11
		v-32v-32h-21h-21v10.5V298h-11h-11v32v32h11h11v21.5V405h10.5H298V383.5z"/>
	<path id="path3166" fill="#B4C074" d="M0,512V0h512h512v512v512H512H0V512z M426,863.5V853h-21.5H383v10.5V874h21.5H426V863.5z
		 M639,863.5V853h-21h-21v10.5V874h21h21V863.5z M639,724.5V703h11h11v-21v-21h-11h-11v21v21h-10.5H618v-64v-64h-10.5H597v-10.5V554
		h10.5H618v-10.5V533h10.5H639v53v53h11h11v-64v-64h-21.5H618v11v11h-10.5H597v-11v-11h-11h-11v-10.5V490h11h11v-10.5V469h-11h-11
		v-11v-11h11h11v-10.5V426h10.5H618v-10.5V405h10.5H639v-32v-32h11h11v-21.5V298h-11h-11v21.5V341h-10.5H618v-21.5V298h-32h-32v10.5
		V319h-10.5H533v-10.5V298h-11h-11v-10.5V277h43h43v-21.5V234h-11h-11v-10.5V213h-64h-64v10.5V234h-10.5H426v21.5V277h32h32v10.5
		V298h-10.5H469v10.5V319h-11h-11v-10.5V298h-10.5H426v64v64h10.5H447v10.5V447h32h32v32v32h-10.5H490v-21v-21h-10.5H469v21v21h-11
		h-11v11v11h-10.5H426v10.5V554h10.5H447v10.5V575h-10.5H426v21.5V618h-10.5H405v10.5V639h10.5H426v11v11h-10.5H405v10.5V682h10.5
		H426v10.5V703h10.5H447v-10.5V682h11h11v10.5V703h10.5H490v-10.5V682h10.5H511v10.5V703h11h11v-10.5V682h10.5H554v10.5V703h10.5
		H575v-10.5V682h11h11v21.5V725h10.5H618v10.5V746h10.5H639V724.5z M447,650v-11h11h11v11v11h-11h-11V650z M490,650v-11h10.5H511v11
		v11h-10.5H490V650z M533,650v-11h10.5H554v11v11h-10.5H533V650z M575,650v-11h11h11v11v11h-11h-11V650z M447,607.5V597h11h11v10.5
		V618h-11h-11V607.5z M490,607.5V597h10.5H511v10.5V618h-10.5H490V607.5z M533,607.5V597h10.5H554v10.5V618h-10.5H533V607.5z
		 M575,607.5V597h11h11v10.5V618h-11h-11V607.5z M469,564.5V554h10.5H490v10.5V575h-10.5H469V564.5z M511,564.5V554h11h11v10.5V575
		h-11h-11V564.5z M554,564.5V554h10.5H575v10.5V575h-10.5H554V564.5z M469,522v-11h10.5H490v11v11h-10.5H469V522z M511,522v-11h11
		h11v11v11h-11h-11V522z M554,522v-11h10.5H575v11v11h-10.5H554V522z M490,308.5V298h10.5H511v10.5V319h-10.5H490V308.5z M405,500.5
		V490h-53.5H298v-32v-32h-10.5H277v32v32h10.5H298v10.5V511h53.5H405V500.5z M298,383.5V362h21.5H341v-10.5V341h-11h-11v-32v-32h-21
		h-21v10.5V298h-11h-11v32v32h11h11v21.5V405h10.5H298V383.5z"/>
	<path id="path3164" fill="#ACB577" d="M0,512V0h512h512v512v512H512H0V512z M426,863.5V853h-21.5H383v10.5V874h21.5H426V863.5z
		 M639,863.5V853h-21h-21v10.5V874h21h21V863.5z M639,724.5V703h11h11v-96v-96h-21.5H618v11v11h-10.5H597v-11v-11h-11h-11v-10.5V490
		h11h11v-10.5V469h-11h-11v-11v-11h11h11v-10.5V426h10.5H618v-10.5V405h10.5H639v-32v-32h11h11v-21.5V298h-11h-11v21.5V341h-10.5
		H618v-21.5V298h-32h-32v10.5V319h-10.5H533v-10.5V298h-11h-11v-10.5V277h43h43v-21.5V234h-11h-11v-10.5V213h-64h-64v10.5V234h-10.5
		H426v21.5V277h32h32v10.5V298h-10.5H469v10.5V319h-11h-11v-10.5V298h-10.5H426v64v64h10.5H447v10.5V447h32h32v32v32h-10.5H490v-21
		v-21h-10.5H469v21v21h-11h-11v11v11h-10.5H426v10.5V554h10.5H447v10.5V575h-10.5H426v21.5V618h-10.5H405v10.5V639h10.5H426v11v11
		h-10.5H405v10.5V682h10.5H426v10.5V703h10.5H447v-10.5V682h11h11v10.5V703h10.5H490v-10.5V682h10.5H511v10.5V703h11h11v-10.5V682
		h10.5H554v10.5V703h10.5H575v-10.5V682h11h11v21.5V725h10.5H618v10.5V746h10.5H639V724.5z M618,639v-64h-10.5H597v-10.5V554h10.5
		H618v-10.5V533h10.5H639v85v85h-10.5H618V639z M447,650v-11h11h11v11v11h-11h-11V650z M490,650v-11h10.5H511v11v11h-10.5H490V650z
		 M533,650v-11h10.5H554v11v11h-10.5H533V650z M575,650v-11h11h11v11v11h-11h-11V650z M447,607.5V597h11h11v10.5V618h-11h-11V607.5z
		 M490,607.5V597h10.5H511v10.5V618h-10.5H490V607.5z M533,607.5V597h10.5H554v10.5V618h-10.5H533V607.5z M575,607.5V597h11h11v10.5
		V618h-11h-11V607.5z M469,564.5V554h10.5H490v10.5V575h-10.5H469V564.5z M511,564.5V554h11h11v10.5V575h-11h-11V564.5z M554,564.5
		V554h10.5H575v10.5V575h-10.5H554V564.5z M469,522v-11h10.5H490v11v11h-10.5H469V522z M511,522v-11h11h11v11v11h-11h-11V522z
		 M554,522v-11h10.5H575v11v11h-10.5H554V522z M490,308.5V298h10.5H511v10.5V319h-10.5H490V308.5z M405,500.5V490h-53.5H298v-64v-64
		h21.5H341v-10.5V341h-11h-11v-32v-32h-21h-21v10.5V298h-11h-11v32v32h11h11v64v64h10.5H298v10.5V511h53.5H405V500.5z"/>
	<path id="path3162" fill="#AAB767" d="M0,512V0h512h512v512v512H512H0V512z M426,863.5V853h-21.5H383v10.5V874h21.5H426V863.5z
		 M639,863.5V853h-21h-21v10.5V874h21h21V863.5z M639,724.5V703h11h11v-96v-96h-21.5H618v11v11h-10.5H597v-11v-11h-11h-11v-10.5V490
		h11h11v-10.5V469h-11h-11v-11v-11h11h11v-10.5V426h10.5H618v-10.5V405h10.5H639v-32v-32h11h11v-21.5V298h-11h-11v21.5V341h-10.5
		H618v-21.5V298h-32h-32v10.5V319h-10.5H533v-10.5V298h-11h-11v-10.5V277h43h43v-21.5V234h-11h-11v-10.5V213h-64h-64v10.5V234h-10.5
		H426v21.5V277h32h32v10.5V298h-10.5H469v10.5V319h-11h-11v-10.5V298h-10.5H426v64v64h10.5H447v10.5V447h32h32v32v32h-10.5H490v-21
		v-21h-10.5H469v10.5V490h-11h-11v21.5V533h-10.5H426v10.5V554h10.5H447v10.5V575h-10.5H426v21.5V618h-10.5H405v10.5V639h10.5H426
		v11v11h-10.5H405v10.5V682h10.5H426v10.5V703h10.5H447v-10.5V682h11h11v10.5V703h10.5H490v-10.5V682h10.5H511v10.5V703h11h11v-10.5
		V682h10.5H554v10.5V703h10.5H575v-10.5V682h11h11v21.5V725h10.5H618v10.5V746h10.5H639V724.5z M618,639v-64h-10.5H597v-10.5V554
		h10.5H618v-10.5V533h10.5H639v85v85h-10.5H618V639z M447,650v-11h11h11v11v11h-11h-11V650z M490,650v-11h10.5H511v11v11h-10.5H490
		V650z M533,650v-11h10.5H554v11v11h-10.5H533V650z M575,650v-11h11h11v11v11h-11h-11V650z M447,607.5V597h11h11v10.5V618h-11h-11
		V607.5z M490,607.5V597h10.5H511v10.5V618h-10.5H490V607.5z M533,607.5V597h10.5H554v10.5V618h-10.5H533V607.5z M575,607.5V597h11
		h11v10.5V618h-11h-11V607.5z M469,564.5V554h10.5H490v10.5V575h-10.5H469V564.5z M511,564.5V554h11h11v10.5V575h-11h-11V564.5z
		 M554,564.5V554h10.5H575v10.5V575h-10.5H554V564.5z M469,522v-11h10.5H490v11v11h-10.5H469V522z M511,522v-11h11h11v11v11h-11h-11
		V522z M554,522v-11h10.5H575v11v11h-10.5H554V522z M490,308.5V298h10.5H511v10.5V319h-10.5H490V308.5z M405,500.5V490h-53.5H298
		v-64v-64h21.5H341v-10.5V341h-11h-11v-32v-32h-21h-21v10.5V298h-11h-11v32v32h11h11v64v64h10.5H298v10.5V511h53.5H405V500.5z"/>
	<path id="path3160" fill="#A6B06F" d="M0,512V0h512h512v512v512H512H0V512z M426,863.5V853h-21.5H383v10.5V874h21.5H426V863.5z
		 M639,863.5V853h-21h-21v10.5V874h21h21V863.5z M639,724.5V703h11h11v-96v-96h-21.5H618v11v11h-10.5H597v-11v-11h-11h-11v-10.5V490
		h11h11v-10.5V469h-11h-11v-11v-11h11h11v-10.5V426h10.5H618v-10.5V405h10.5H639v-32v-32h11h11v-21.5V298h-11h-11v21.5V341h-10.5
		H618v-21.5V298h-32h-32v10.5V319h-10.5H533v-10.5V298h-11h-11v-10.5V277h43h43v-21.5V234h-11h-11v-10.5V213h-64h-64v10.5V234h-10.5
		H426v21.5V277h32h32v10.5V298h-10.5H469v10.5V319h-11h-11v-10.5V298h-10.5H426v64v64h10.5H447v10.5V447h32h32v32v32h-10.5H490v-21
		v-21h-10.5H469v10.5V490h-11h-11v21.5V533h-10.5H426v10.5V554h10.5H447v10.5V575h-10.5H426v21.5V618h-10.5H405v10.5V639h10.5H426
		v11v11h-10.5H405v10.5V682h10.5H426v10.5V703h10.5H447v-10.5V682h11h11v10.5V703h10.5H490v-10.5V682h10.5H511v10.5V703h11h11v-10.5
		V682h10.5H554v10.5V703h10.5H575v-10.5V682h11h11v21.5V725h10.5H618v10.5V746h10.5H639V724.5z M618,639v-64h-10.5H597v-10.5V554
		h10.5H618v-10.5V533h10.5H639v85v85h-10.5H618V639z M447,650v-11h11h11v11v11h-11h-11V650z M490,650v-11h10.5H511v11v11h-10.5H490
		V650z M533,650v-11h10.5H554v11v11h-10.5H533V650z M575,650v-11h11h11v11v11h-11h-11V650z M447,607.5V597h11h11v10.5V618h-11h-11
		V607.5z M490,607.5V597h10.5H511v10.5V618h-10.5H490V607.5z M533,607.5V597h10.5H554v10.5V618h-10.5H533V607.5z M575,607.5V597h11
		h11v10.5V618h-11h-11V607.5z M469,564.5V554h10.5H490v10.5V575h-10.5H469V564.5z M511,564.5V554h11h11v10.5V575h-11h-11V564.5z
		 M554,564.5V554h10.5H575v10.5V575h-10.5H554V564.5z M469,522v-11h10.5H490v11v11h-10.5H469V522z M511,522v-11h11h11v11v11h-11h-11
		V522z M554,522v-11h10.5H575v11v11h-10.5H554V522z M490,308.5V298h10.5H511v10.5V319h-10.5H490V308.5z M426,500.5V490h-64h-64v-64
		v-64h21.5H341v-10.5V341h-11h-11v-32v-32h-21h-21v10.5V298h-11h-11v32v32h11h11v64v64h10.5H298v10.5V511h64h64V500.5z"/>
	<path id="path3158" fill="#A0A772" d="M0,512V0h512h512v512v512H512H0V512z M426,863.5V853h-21.5H383v10.5V874h21.5H426V863.5z
		 M639,863.5V853h-21h-21v10.5V874h21h21V863.5z M639,724.5V703h11h11v-96v-96h-21.5H618v11v11h-10.5H597v-11v-11h-11h-11v-10.5V490
		h11h11v-10.5V469h-11h-11v-11v-11h11h11v-10.5V426h10.5H618v-10.5V405h10.5H639v-32v-32h11h11v-21.5V298h-11h-11v21.5V341h-10.5
		H618v-21.5V298h-32h-32v10.5V319h-10.5H533v-10.5V298h-11h-11v-10.5V277h43h43v-21.5V234h-11h-11v-10.5V213h-64h-64v10.5V234h-10.5
		H426v21.5V277h32h32v10.5V298h-10.5H469v10.5V319h-11h-11v-10.5V298h-10.5H426v64v64h10.5H447v10.5V447h32h32v32v32h-10.5H490v-21
		v-21h-10.5H469v10.5V490h-85.5H298v-64v-64h21.5H341v-10.5V341h-11h-11v-32v-32h-21h-21v10.5V298h-11h-11v32v32h11h11v64v64h10.5
		H298v10.5V511h74.5H447v11v11h-10.5H426v10.5V554h10.5H447v10.5V575h-10.5H426v21.5V618h-10.5H405v10.5V639h10.5H426v11v11h-10.5
		H405v10.5V682h10.5H426v10.5V703h10.5H447v-10.5V682h11h11v10.5V703h10.5H490v-10.5V682h10.5H511v10.5V703h11h11v-10.5V682h10.5
		H554v10.5V703h10.5H575v-10.5V682h11h11v21.5V725h10.5H618v10.5V746h10.5H639V724.5z M618,639v-64h-10.5H597v-10.5V554h10.5H618
		v-10.5V533h10.5H639v85v85h-10.5H618V639z M447,650v-11h11h11v11v11h-11h-11V650z M490,650v-11h10.5H511v11v11h-10.5H490V650z
		 M533,650v-11h10.5H554v11v11h-10.5H533V650z M575,650v-11h11h11v11v11h-11h-11V650z M447,607.5V597h11h11v10.5V618h-11h-11V607.5z
		 M490,607.5V597h10.5H511v10.5V618h-10.5H490V607.5z M533,607.5V597h10.5H554v10.5V618h-10.5H533V607.5z M575,607.5V597h11h11v10.5
		V618h-11h-11V607.5z M469,564.5V554h10.5H490v10.5V575h-10.5H469V564.5z M511,564.5V554h11h11v10.5V575h-11h-11V564.5z M554,564.5
		V554h10.5H575v10.5V575h-10.5H554V564.5z M469,522v-11h10.5H490v11v11h-10.5H469V522z M511,522v-11h11h11v11v11h-11h-11V522z
		 M554,522v-11h10.5H575v11v11h-10.5H554V522z M490,308.5V298h10.5H511v10.5V319h-10.5H490V308.5z"/>
	<path id="path3156" fill="#9DA372" d="M0,512V0h512h512v512v512H512H0V512z M426,863.5V853h-21.5H383v10.5V874h21.5H426V863.5z
		 M639,863.5V853h-21h-21v10.5V874h21h21V863.5z M639,724.5V703h11h11v-96v-96h-11h-11v-10.5V490h-21h-21v-10.5V469h-11h-11v-11v-11
		h11h11v-10.5V426h10.5H618v-10.5V405h10.5H639v-32v-32h11h11v-21.5V298h-11h-11v21.5V341h-10.5H618v-21.5V298h-32h-32v10.5V319
		h-10.5H533v-10.5V298h-11h-11v-10.5V277h43h43v-21.5V234h-11h-11v-10.5V213h-64h-64v10.5V234h-10.5H426v21.5V277h32h32v10.5V298
		h-10.5H469v10.5V319h-11h-11v-10.5V298h-10.5H426v64v64h10.5H447v10.5V447h32h32v11v11h-21h-21v10.5V490h-85.5H298v-64v-64h21.5
		H341v-10.5V341h-11h-11v-32v-32h-21h-21v10.5V298h-11h-11v32v32h11h11v64v64h10.5H298v10.5V511h74.5H447v11v11h-10.5H426v10.5V554
		h10.5H447v10.5V575h-10.5H426v21.5V618h-10.5H405v10.5V639h10.5H426v11v11h-10.5H405v10.5V682h10.5H426v10.5V703h10.5H447v-10.5
		V682h11h11v10.5V703h10.5H490v-10.5V682h10.5H511v10.5V703h11h11v-10.5V682h10.5H554v10.5V703h10.5H575v-10.5V682h11h11v21.5V725
		h10.5H618v10.5V746h10.5H639V724.5z M618,639v-64h-10.5H597v-10.5V554h10.5H618v-10.5V533h-10.5H597v-11v-11h10.5H618v11v11h10.5
		H639v85v85h-10.5H618V639z M447,650v-11h11h11v11v11h-11h-11V650z M490,650v-11h10.5H511v11v11h-10.5H490V650z M533,650v-11h10.5
		H554v11v11h-10.5H533V650z M575,650v-11h11h11v11v11h-11h-11V650z M447,607.5V597h11h11v10.5V618h-11h-11V607.5z M490,607.5V597
		h10.5H511v10.5V618h-10.5H490V607.5z M533,607.5V597h10.5H554v10.5V618h-10.5H533V607.5z M575,607.5V597h11h11v10.5V618h-11h-11
		V607.5z M469,564.5V554h10.5H490v10.5V575h-10.5H469V564.5z M511,564.5V554h11h11v10.5V575h-11h-11V564.5z M554,564.5V554h10.5H575
		v10.5V575h-10.5H554V564.5z M469,522v-11h10.5H490v11v11h-10.5H469V522z M511,522v-11h11h11v11v11h-11h-11V522z M554,522v-11h10.5
		H575v11v11h-10.5H554V522z M490,308.5V298h10.5H511v10.5V319h-10.5H490V308.5z"/>
	<path id="path3154" fill="#9DA761" d="M0,512V0h512h512v512v512H512H0V512z M426,863.5V853h-21.5H383v10.5V874h21.5H426V863.5z
		 M639,863.5V853h-21h-21v10.5V874h21h21V863.5z M639,724.5V703h11h11v-96v-96h-11h-11v-10.5V490h-21h-21v-10.5V469h-11h-11v-11v-11
		h11h11v-10.5V426h10.5H618v-10.5V405h10.5H639v-32v-32h11h11v-21.5V298h-11h-11v21.5V341h-10.5H618v-21.5V298h-32h-32v10.5V319
		h-10.5H533v-10.5V298h-11h-11v-10.5V277h43h43v-21.5V234h-11h-11v-10.5V213h-64h-64v10.5V234h-10.5H426v21.5V277h32h32v10.5V298
		h-10.5H469v10.5V319h-11h-11v-10.5V298h-10.5H426v64v64h10.5H447v10.5V447h32h32v11v11h-21h-21v10.5V490h-85.5H298v-64v-64h21.5
		H341v-10.5V341h-11h-11v-32v-32h-21h-21v10.5V298h-11h-11v32v32h11h11v64v64h10.5H298v10.5V511h64h64v43v43h-10.5H405v53v53h96h96
		v11v11h10.5H618v10.5V746h10.5H639V724.5z M618,618v-85h10.5H639v85v85h-10.5H618V618z M490,308.5V298h10.5H511v10.5V319h-10.5H490
		V308.5z"/>
	<path id="path3152" fill="#99A265" d="M0,512V0h512h512v512v512H512H0V512z M426,863.5V853h-21.5H383v10.5V874h21.5H426V863.5z
		 M639,863.5V853h-21h-21v10.5V874h21h21V863.5z M639,724.5V703h11h11v-96v-96h-11h-11v-10.5V490h-21h-21v-10.5V469h-11h-11v-11v-11
		h11h11v-10.5V426h10.5H618v-10.5V405h10.5H639v-32v-32h11h11v-21.5V298h-11h-11v21.5V341h-10.5H618v-21.5V298h-32h-32v10.5V319
		h-10.5H533v-10.5V298h-11h-11v-10.5V277h43h43v-21.5V234h-11h-11v-10.5V213h-64h-64v10.5V234h-10.5H426v21.5V277h32h32v10.5V298
		h-10.5H469v10.5V319h-11h-11v-10.5V298h-10.5H426v64v64h10.5H447v10.5V447h32h32v11v11h-21h-21v10.5V490h-85.5H298v-64v-64h21.5
		H341v-10.5V341h-11h-11v-32v-32h-21h-21v10.5V298h-11h-11v32v32h11h11v64v64h10.5H298v10.5V511h64h64v43v43h-10.5H405v53v53h96h96
		v11v11h10.5H618v10.5V746h10.5H639V724.5z M618,650v-53h10.5H639v53v53h-10.5H618V650z M618,564.5V554h10.5H639v10.5V575h-10.5H618
		V564.5z M490,308.5V298h10.5H511v10.5V319h-10.5H490V308.5z"/>
	<path id="path3150" fill="#98A45C" d="M0,512V0h512h512v512v512H512H0V512z M426,863.5V853h-21.5H383v10.5V874h21.5H426V863.5z
		 M639,863.5V853h-21h-21v10.5V874h21h21V863.5z M639,724.5V703h11h11v-96v-96h-11h-11v-10.5V490h-21h-21v-10.5V469h-11h-11v-11v-11
		h11h11v-10.5V426h10.5H618v-10.5V405h10.5H639v-32v-32h11h11v-21.5V298h-11h-11v21.5V341h-10.5H618v-21.5V298h-32h-32v10.5V319
		h-10.5H533v-10.5V298h-11h-11v-10.5V277h43h43v-21.5V234h-11h-11v-10.5V213h-64h-64v10.5V234h-10.5H426v21.5V277h32h32v10.5V298
		h-10.5H469v10.5V319h-11h-11v-10.5V298h-10.5H426v64v64h10.5H447v10.5V447h32h32v11v11h-21h-21v10.5V490h-85.5H298v-64v-64h21.5
		H341v-10.5V341h-11h-11v-32v-32h-21h-21v10.5V298h-11h-11v32v32h11h11v64v64h10.5H298v10.5V511h64h64v43v43h-10.5H405v53v53h96h96
		v11v11h10.5H618v10.5V746h10.5H639V724.5z M618,692.5V682h10.5H639v10.5V703h-10.5H618V692.5z M618,650v-11h10.5H639v11v11h-10.5
		H618V650z M618,607.5V597h10.5H639v10.5V618h-10.5H618V607.5z M618,564.5V554h10.5H639v10.5V575h-10.5H618V564.5z M490,308.5V298
		h10.5H511v10.5V319h-10.5H490V308.5z"/>
	<path id="path3148" fill="#8C9266" d="M0,512V0h512h512v512v512H512H0V512z M426,863.5V853h-21.5H383v10.5V874h21.5H426V863.5z
		 M639,863.5V853h-21h-21v10.5V874h21h21V863.5z M639,724.5V703h11h11v-96v-96h-11h-11v-10.5V490h-21h-21v-10.5V469h-11h-11v-11v-11
		h11h11v-10.5V426h10.5H618v-10.5V405h10.5H639v-32v-32h11h11v-21.5V298h-11h-11v21.5V341h-10.5H618v-21.5V298h-32h-32v10.5V319
		h-10.5H533v-10.5V298h-11h-11v-10.5V277h43h43v-21.5V234h-11h-11v-10.5V213h-64h-64v10.5V234h-10.5H426v21.5V277h32h32v10.5V298
		h-10.5H469v10.5V319h-11h-11v-10.5V298h-10.5H426v64v64h10.5H447v10.5V447h32h32v11v11h-21h-21v10.5V490h-85.5H298v-64v-64h21.5
		H341v-10.5V341h-11h-11v-32v-32h-21h-21v10.5V298h-11h-11v32v32h11h11v64v64h10.5H298v10.5V511h64h64v43v43h-10.5H405v53v53h10.5
		H426v11v11h10.5H447v-11v-11h11h11v11v11h10.5H490v-11v-11h10.5H511v11v11h11h11v-11v-11h10.5H554v11v11h10.5H575v-11v-11h11h11v11
		v11h10.5H618v10.5V746h10.5H639V724.5z M618,692.5V682h10.5H639v10.5V703h-10.5H618V692.5z M618,650v-11h10.5H639v11v11h-10.5H618
		V650z M618,607.5V597h10.5H639v10.5V618h-10.5H618V607.5z M618,564.5V554h10.5H639v10.5V575h-10.5H618V564.5z M490,308.5V298h10.5
		H511v10.5V319h-10.5H490V308.5z"/>
	<path id="path3146" fill="#7D835B" d="M0,512V0h512h512v512v512H512H0V512z M426,863.5V853h-21.5H383v10.5V874h21.5H426V863.5z
		 M639,863.5V853h-21h-21v10.5V874h21h21V863.5z M639,724.5V703h11h11v-96v-96h-11h-11v-10.5V490h-21h-21v-10.5V469h-11h-11v-11v-11
		h11h11v-10.5V426h10.5H618v-10.5V405h10.5H639v-32v-32h11h11v-21.5V298h-11h-11v21.5V341h-10.5H618v-21.5V298h-32h-32v10.5V319
		h-10.5H533v-10.5V298h-11h-11v-10.5V277h43h43v-21.5V234h-11h-11v-10.5V213h-64h-64v10.5V234h-10.5H426v21.5V277h32h32v10.5V298
		h-10.5H469v10.5V319h-11h-11v-10.5V298h-10.5H426v64v64h10.5H447v10.5V447h32h32v11v11h-21h-21v10.5V490h-85.5H298v-64v-64h21.5
		H341v-10.5V341h-11h-11v-32v-32h-21h-21v10.5V298h-11h-11v32v32h11h11v64v64h10.5H298v10.5V511h64h64v43v43h-10.5H405v53v53h10.5
		H426v11v11h10.5H447v-11v-11h11h11v11v11h10.5H490v-11v-11h10.5H511v11v11h11h11v-11v-11h10.5H554v11v11h10.5H575v-11v-11h11h11v11
		v11h10.5H618v10.5V746h10.5H639V724.5z M618,650v-11h10.5H639v11v11h-10.5H618V650z M618,607.5V597h10.5H639v10.5V618h-10.5H618
		V607.5z M618,564.5V554h10.5H639v10.5V575h-10.5H618V564.5z M490,308.5V298h10.5H511v10.5V319h-10.5H490V308.5z"/>
	<path id="path3144" fill="#7E8457" d="M0,512V0h512h512v512v512H512H0V512z M426,863.5V853h-21.5H383v10.5V874h21.5H426V863.5z
		 M639,863.5V853h-21h-21v10.5V874h21h21V863.5z M639,724.5V703h11h11v-96v-96h-11h-11v-10.5V490h-21h-21v-10.5V469h-11h-11v-11v-11
		h11h11v-10.5V426h10.5H618v-10.5V405h10.5H639v-32v-32h11h11v-21.5V298h-11h-11v21.5V341h-10.5H618v-21.5V298h-32h-32v10.5V319
		h-10.5H533v-10.5V298h-11h-11v-10.5V277h43h43v-21.5V234h-11h-11v-10.5V213h-64h-64v10.5V234h-10.5H426v21.5V277h32h32v10.5V298
		h-10.5H469v10.5V319h-11h-11v-10.5V298h-10.5H426v64v64h10.5H447v10.5V447h32h32v11v11h-21h-21v10.5V490h-85.5H298v-64v-64h21.5
		H341v-10.5V341h-11h-11v-32v-32h-21h-21v10.5V298h-11h-11v32v32h11h11v64v64h10.5H298v10.5V511h64h64v43v43h-10.5H405v53v53h10.5
		H426v11v11h10.5H447v-11v-11h11h11v11v11h10.5H490v-11v-11h10.5H511v11v11h11h11v-11v-11h10.5H554v11v11h10.5H575v-11v-11h11h11v11
		v11h10.5H618v10.5V746h10.5H639V724.5z M618,564.5V554h10.5H639v10.5V575h-10.5H618V564.5z M490,308.5V298h10.5H511v10.5V319h-10.5
		H490V308.5z"/>
	<path id="path3142" fill="#7A8250" d="M0,512V0h512h512v512v512H512H0V512z M426,863.5V853h-21.5H383v10.5V874h21.5H426V863.5z
		 M639,863.5V853h-21h-21v10.5V874h21h21V863.5z M639,724.5V703h11h11v-96v-96h-11h-11v-10.5V490h-21h-21v-10.5V469h-11h-11v-11v-11
		h11h11v-10.5V426h10.5H618v-10.5V405h10.5H639v-32v-32h11h11v-21.5V298h-11h-11v21.5V341h-10.5H618v-21.5V298h-32h-32v10.5V319
		h-10.5H533v-10.5V298h-11h-11v-10.5V277h43h43v-21.5V234h-11h-11v-10.5V213h-64h-64v10.5V234h-10.5H426v21.5V277h32h32v10.5V298
		h-10.5H469v10.5V319h-11h-11v-10.5V298h-10.5H426v64v64h10.5H447v10.5V447h32h32v11v11h-21h-21v10.5V490h-85.5H298v-64v-64h21.5
		H341v-10.5V341h-11h-11v-32v-32h-21h-21v10.5V298h-11h-11v32v32h11h11v64v64h10.5H298v10.5V511h64h64v43v43h-10.5H405v53v53h10.5
		H426v11v11h10.5H447v-11v-11h11h11v11v11h10.5H490v-11v-11h10.5H511v11v11h11h11v-11v-11h10.5H554v11v11h10.5H575v-11v-11h11h11v11
		v11h10.5H618v10.5V746h10.5H639V724.5z M490,308.5V298h10.5H511v10.5V319h-10.5H490V308.5z"/>
	<path id="path3140" fill="#7A722D" d="M0,512V0h512h512v512v512H512H0V512z M426,863.5V853h-21.5H383v10.5V874h21.5H426V863.5z
		 M639,863.5V853h-21h-21v10.5V874h21h21V863.5z M639,724.5V703h11h11v-96v-96h-11h-11v-10.5V490h-21h-21v-10.5V469h-11h-11v-11v-11
		h11h11v-10.5V426h10.5H618v-10.5V405h10.5H639v-32v-32h11h11v-21.5V298h-11h-11v21.5V341h-10.5H618v-21.5V298h-32h-32v10.5V319
		h-10.5H533v-10.5V298h-11h-11v-10.5V277h43h43v-21.5V234h-11h-11v-10.5V213h-64h-64v10.5V234h-10.5H426v21.5V277h32h32v10.5V298
		h-10.5H469v10.5V319h-11h-11v-10.5V298h-10.5H426v64v64h10.5H447v10.5V447h32h32v11v11h-21h-21v10.5V490h-85.5H298v-64v-64h21.5
		H341v-10.5V341h-11h-11v-32v-32h-21h-21v10.5V298h-11h-11v32v32h11h11v64v64h10.5H298v10.5V511h64h64v43v43h-10.5H405v64v64h106.5
		H618v10.5V746h10.5H639V724.5z M490,308.5V298h10.5H511v10.5V319h-10.5H490V308.5z"/>
	<path id="path3138" fill="#6D6628" d="M255,884.5V874h213.5H682v10.5V895H468.5H255V884.5z M405,789v-64h106.5H618v10.5V746h10.5
		H639v53.5V853h-10.5H618v-53.5V746h-96h-96v53.5V853h-10.5H405V789z M405,287.5V234h-11h-11v-32v-32h11h11v-21.5V127h21h21v-10.5
		V106h64h64v10.5V127h43h43v11v11h10.5H682v53v53h-10.5H661v21.5V298h-11h-11v21.5V341h-10.5H618v-21.5V298h-32h-32v10.5V319h-10.5
		H533v-10.5V298h-11h-11v10.5V319h-10.5H490v-10.5V298h-10.5H469v10.5V319h-11h-11v-10.5V298h-10.5H426v21.5V341h-10.5H405V287.5z
		 M511,287.5V277h43h43v-21.5V234h-11h-11v-10.5V213h-64h-64v10.5V234h-10.5H426v21.5V277h32h32v10.5V298h10.5H511V287.5z"/>
	<path id="path3136" fill="#7A4C1D" d="M383,884.5V874h21.5H426v10.5V895h-21.5H383V884.5z M597,884.5V874h21h21v10.5V895h-21h-21
		V884.5z M405,789v-64h106.5H618v10.5V746h10.5H639v53.5V853h-10.5H618v-53.5V746h-96h-96v53.5V853h-10.5H405V789z M405,287.5V234
		h-11h-11v-32v-32h11h11v-21.5V127h21h21v-10.5V106h64h64v10.5V127h43h43v11v11h10.5H682v53v53h-10.5H661v21.5V298h-11h-11v21.5V341
		h-10.5H618v-21.5V298h-32h-32v10.5V319h-10.5H533v-10.5V298h-11h-11v10.5V319h-10.5H490v-10.5V298h-10.5H469v10.5V319h-11h-11
		v-10.5V298h-10.5H426v21.5V341h-10.5H405V287.5z M511,287.5V277h43h43v-21.5V234h-11h-11v-10.5V213h-64h-64v10.5V234h-10.5H426
		v21.5V277h32h32v10.5V298h10.5H511V287.5z"/>
	<path id="path3134" fill="#615B23" d="M383,884.5V874h21.5H426v10.5V895h-21.5H383V884.5z M597,884.5V874h21h21v10.5V895h-21h-21
		V884.5z M405,789v-64h106.5H618v10.5V746h10.5H639v53.5V853h-10.5H618v-53.5V746h-96h-96v53.5V853h-10.5H405V789z M405,287.5V234
		h-11h-11v-21.5V191h11h11v-21v-21h10.5H426v-11v-11h32h32v-10.5V106h42.5H575v10.5V127h32h32v11v11h21.5H682v53v53h-10.5H661v21.5
		V298h-11h-11v21.5V341h-10.5H618v-21.5V298h-32h-32v10.5V319h-10.5H533v-10.5V298h-11h-11v10.5V319h-10.5H490v-10.5V298h-10.5H469
		v10.5V319h-11h-11v-10.5V298h-10.5H426v21.5V341h-10.5H405V287.5z M511,287.5V277h43h43v-21.5V234h-11h-11v-10.5V213h-64h-64v10.5
		V234h-10.5H426v21.5V277h32h32v10.5V298h10.5H511V287.5z"/>
	<path id="path3132" fill="#70481A" d="M405,789v-64h106.5H618v10.5V746h10.5H639v53.5V853h-10.5H618v-53.5V746h-96h-96v53.5V853
		h-10.5H405V789z M405,287.5V234h-11h-11v-21.5V191h11h11v-21v-21h10.5H426v-11v-11h32h32v-10.5V106h42.5H575v10.5V127h32h32v11v11
		h21.5H682v53v53h-10.5H661v21.5V298h-11h-11v21.5V341h-10.5H618v-21.5V298h-32h-32v10.5V319h-10.5H533v-10.5V298h-11h-11v10.5V319
		h-10.5H490v-10.5V298h-10.5H469v10.5V319h-11h-11v-10.5V298h-10.5H426v21.5V341h-10.5H405V287.5z M511,287.5V277h43h43v-21.5V234
		h-11h-11v-10.5V213h-64h-64v10.5V234h-10.5H426v21.5V277h32h32v10.5V298h10.5H511V287.5z"/>
	<path id="path3130" fill="#654316" d="M405,789v-64h106.5H618v10.5V746h10.5H639v53.5V853h-10.5H618v-53.5V746h-96h-96v53.5V853
		h-10.5H405V789z M405,287.5V234h-11h-11v-10.5V213h11h11v-21.5V170h10.5H426v-10.5V149h10.5H447v-11v-11h53.5H554v11v11h53.5H661
		v10.5V170h10.5H682v42.5V255h-10.5H661v21.5V298h-11h-11v21.5V341h-10.5H618v-21.5V298h-32h-32v10.5V319h-10.5H533v-10.5V298h-11
		h-11v10.5V319h-10.5H490v-10.5V298h-10.5H469v10.5V319h-11h-11v-10.5V298h-10.5H426v21.5V341h-10.5H405V287.5z M511,287.5V277h43
		h43v-21.5V234h-11h-11v-10.5V213h-64h-64v10.5V234h-10.5H426v21.5V277h32h32v10.5V298h10.5H511V287.5z"/>
	<path id="path3128" fill="#2F2060" d="M405,789v-64h106.5H618v10.5V746h10.5H639v53.5V853h-10.5H618v-53.5V746h-96h-96v53.5V853
		h-10.5H405V789z M405,287.5V234h-11h-11v-10.5V213h11h11v-11v-11h10.5H426v-21v-21h10.5H447v-11v-11h43h43v11v11h53h53v10.5V170h11
		h11v21.5V213h10.5H682v21v21h-10.5H661v21.5V298h-11h-11v21.5V341h-10.5H618v-21.5V298h-32h-32v10.5V319h-10.5H533v-10.5V298h-11
		h-11v10.5V319h-10.5H490v-10.5V298h-10.5H469v10.5V319h-11h-11v-10.5V298h-10.5H426v21.5V341h-10.5H405V287.5z M511,287.5V277h43
		h43v-21.5V234h-11h-11v-10.5V213h-64h-64v10.5V234h-10.5H426v21.5V277h32h32v10.5V298h10.5H511V287.5z"/>
	<path id="path3126" fill="#593E12" d="M405,287.5V234h-11h-11v-10.5V213h11h11v-11v-11h10.5H426v-21v-21h10.5H447v-11v-11h43h43v11
		v11h53h53v10.5V170h11h11v21.5V213h10.5H682v21v21h-10.5H661v21.5V298h-11h-11v21.5V341h-10.5H618v-21.5V298h-32h-32v10.5V319
		h-10.5H533v-10.5V298h-11h-11v10.5V319h-10.5H490v-10.5V298h-10.5H469v10.5V319h-11h-11v-10.5V298h-10.5H426v21.5V341h-10.5H405
		V287.5z M511,287.5V277h43h43v-21.5V234h-11h-11v-10.5V213h-64h-64v10.5V234h-10.5H426v21.5V277h32h32v10.5V298h10.5H511V287.5z"/>
	<path id="path3124" fill="#4F3710" d="M405,277v-64h10.5H426v-11v-11h96h96v11v11h10.5H639v10.5V234h21.5H682v10.5V255h-10.5H661
		v21.5V298h-11h-11v21.5V341h-10.5H618v-21.5V298h-53.5H511v10.5V319h-10.5H490v-10.5V298h-32h-32v21.5V341h-10.5H405V277z
		 M511,287.5V277h43h43v-21.5V234h-11h-11v-10.5V213h-64h-64v10.5V234h-10.5H426v21.5V277h32h32v10.5V298h10.5H511V287.5z"/>
	<path id="path3122" fill="#46310E" d="M405,287.5V234h10.5H426v-10.5V213h10.5H447v-11v-11h64h64v11v11h21.5H618v21v21h10.5H639
		v-10.5V234h21.5H682v10.5V255h-10.5H661v21.5V298h-11h-11v21.5V341h-10.5H618v-21.5V298h-53.5H511v10.5V319h-10.5H490v-10.5V298
		h-32h-32v21.5V341h-10.5H405V287.5z M511,287.5V277h43h43v-21.5V234h-11h-11v-10.5V213h-64h-64v10.5V234h-10.5H426v21.5V277h32h32
		v10.5V298h10.5H511V287.5z"/>
	<path id="path3120" fill="#322209" d="M490,308.5V298h-42.5H405v-10.5V277h42.5H490v10.5V298h10.5H511v-10.5V277h75h75v10.5V298
		h-75h-75v10.5V319h-10.5H490V308.5z"/>
</g>
</svg>
